<svg xmlns="http://www.w3.org/2000/svg" viewBox="0 0 563.53 563.53"><defs><style>.cls-1{fill:#2e1b16;}</style></defs><g id="drum"><path class="cls-1" d="M513,310c-13,1,35-116-65-220,0,0,12-7,10-15,0,0-7-15-32-1,0,0-34-30-108-26,0,0-90,3-122,20,0,0-3.89-13-12.45-10,0,0-7.55,5-4.55,18,0,0-82,64-102,202,0,0-16-2-15,7,0,0,4,8,15,11,0,0-6,75,37,151,0,0-11,11-4,18s16-3,16-3,44,66,209,62a83.53,83.53,0,0,0,29-4,48,48,0,0,0,23,2s5-2,4-10c0,0,94.7-26,118.85-183.5L512,323s7,2,14-5C526,318,526,309,513,310Zm-79-2c-1,54-51,165-112,179,0,0-93,36-185-35,0,0,7-15-10-12,0,0-34-56-37-144,0,0,14-8,0-18,0,0,6-89,94-188,0,0,10,6,17-9,0,0,45-18,118-17,0,0,30-4,60,24C379,88,446,154,434,308Z"/></g></svg>