<svg xmlns="http://www.w3.org/2000/svg" viewBox="0 0 566.19 566.19"><defs><style>.cls-1{fill:#2e1b16;}</style></defs><g id="lute"><path class="cls-1" d="M539.7,102.24,513,74l11.75-11.34-14.24-12.9L500,62,470.65,34.43s-6.87-5.37-11.56.1c0,0-17,16.8-17.74,17.79-1.28,1.77-12.8,11.82-17.1,16.21,0,0-4.31,4.38-1,9.78L448,106,315,222.28s-115,3.23-207.12,62.63c0,0-98.55,73.57-62.81,181.88,0,0,22.43,76.92,118,78.22,0,0,108.6-3.16,159.67-120.95,0,0,24.49-54.53,25.83-145.79,0,0-.07-7.61-2.37-21.71L471,127s25.67,23.94,27.13,24.27c2.3.51,5.72.63,8.33-2,0,0,18.91-18.15,23.21-23.63,0,0,9.27-9.89,11.22-12.53C540.89,113.09,545.19,108.7,539.7,102.24ZM248.53,389.61c-6.38,32.86-38.2,59.5-71.06,59.5s-54.32-26.64-47.93-59.5,38.2-59.5,71.06-59.5S254.92,356.75,248.53,389.61Z"/></g></svg>