<svg xmlns="http://www.w3.org/2000/svg" viewBox="0 0 565.51 565.51"><defs><style>.cls-1{fill:#2e1b16;}</style></defs><g id="tamb"><path class="cls-1" d="M499,184s-17-42-27-54c0,0,31-50-16-85,0,0-46-23-73,13,0,0-149-38-265,109,0,0-72,83-50,203,0,0-36,25-11,83,0,0,25,35,78,12,0,0,33,24,54,28,0,0,3,28,57,34,0,0,37-6,49-34,0,0,53-19,85-45,0,0,42,9,62-21,0,0,17-11,15-52,0,0,31-49,36-74,0,0,42-11,43-65C536,236,538,199,499,184ZM393,320s-49,76-122,95c0,0-104,50-168-31,0,0-42-49-5-145,0,0,10-47,80-107,0,0,75-75,183-55,0,0,67,15,78,94C439,171,452,253,393,320Z"/></g></svg>