<svg id="bell" xmlns="http://www.w3.org/2000/svg" viewBox="0 0 557.34 557.34"><defs><style>.cls-1{fill:#2e1b16;}</style></defs><path class="cls-1" d="M238.81,455.37a24.63,24.63,0,0,0,9.69,15.57S227,496,231,518c0,0,0,13,17.5,19,0,0,31.5,7,44.5-12,0,0,11-31-10-51,0,0,2.29.43,5.64-6.28S238.81,455.37,238.81,455.37Z"/><path class="cls-1" d="M421,214s9-13-52-50c0,0,1-8-8-19,0,0,20,4,18-38,10.89-9.12,18.34-17.07,21-36.09a44.14,44.14,0,0,0-6.09-29.79A40.43,40.43,0,0,0,371.47,24S316,9,318,85c0,0-26,32-4,46,0,0-18,2-22,11,0,0-34-4-67,3,0,0-52,181-137,197L73,368S210,492,421,475l3-30S354,373,421,214ZM336,90s-3-51,30-46c0,0,12.73,3.93,15,15,1.82,8.86-2,26-20,40A32.28,32.28,0,0,0,336,90Z"/></svg>