<svg xmlns="http://www.w3.org/2000/svg" viewBox="0 0 572.21 572.21"><defs><style>.cls-1{fill:#2e1b16;stroke:#231f20;stroke-miterlimit:10;}</style></defs><g id="castanet"><path class="cls-1" d="M440.5,232.35a31.41,31.41,0,0,1-12.22-30.78l9.22-51.07L420,131.5l-46.48,7s-18.79-83.7-87.39-80.35c0,0-71.61-11.65-94.61,80.35,0,0-32-4-41-7l-23,16,11.33,51a31.71,31.71,0,0,1-11.62,32.09C102.3,249.61,58,292.71,62,356.36,67.5,444.5,149.5,488.5,201.5,486.5S282,460,282,460l.64.47c11.69-8,52.15-40.29,53.86-107,1.85-72.1-46.71-109.17-54.07-114.36l-.43.29-4.5-2.93c-24-16-17-29-13-42l8-37s1-27-21-25-5,2-42,4c0,0,5-57.55,72.5-62.78,0,0,59.2-3.22,71.85,62.78,0,0-31.35-7-38.35-5s-20,5-22,25l10.13,42.71c5.87,20.29-1.13,25.29-8.13,31.29l-4.81,3.18c40,39.37,50.84,67.32,53.81,116.82.87,67.69-42.05,107.32-53.32,115.47,23.7,13.82,90.11,42.94,161.32-11.47C534.42,391.91,500.27,276.78,440.5,232.35Z"/></g></svg>