<svg id="Layer_1" data-name="Layer 1" xmlns="http://www.w3.org/2000/svg" viewBox="0 0 1080 1080"><defs><style>.cls-1{fill:#c1ac7a;}</style></defs><path class="cls-1" d="M195.09,663c5.86,21.21-13.13,45.74-35.23,59.7-17.57,8.44-28.12,3.16-32.07,28.2,48.11,14.25,46.16-21.52,46.12-25,4,26.23-26.3,34.41-42.89,46.59-22.13,16.26-19.09,45.22-14,69q2,9.08,4.47,18l.37-.11c-5.15-18.87-2.67-38.45,11.17-55.76,10.54-10.54,31.62-10.54,44.8-5.27,2.64,2.64,2.64,7.91,3.95,11.86,11-6.72,8-22.26,2.64-31.62,20.47,7.53,25.41-20.83,27-34.79,3.28-29.61-.3-60.78-16.41-86.43.16,7-30,12.29-26.35,18.45C169.22,668.8,196.22,669.12,195.09,663Z"/><path class="cls-1" d="M121.89,859.32l-.37.11a317.12,317.12,0,0,0,30.09,71.72C164.7,954,184.74,982.5,170,1009.32c-5.33,9.69-16.92,20.71-29,15.66-10.18-4.27-8.65-17.15-4-25.09a27.73,27.73,0,0,1-8,3.88,13.85,13.85,0,0,1,5-3.15c-15.38,4.83-19,24.37-9.78,37.1,18.56,25.65,64.32,19.43,80.45-5.53,20.88-32.3-55.9-114.7-24.15-91.59,36.75,19.81,75.21,43.91,118.51,43.08,34.43-.66,61.48-22,81-48.8,22.27-30.52,47.47-57,78-79.5,28.87-21.29,64.31-44.83,101.76-33.17,14.18,4.41,53.57,21.41,33.14,40.65,13.54,2,19.53-14,17-24.93-3.34-14.74-24.52-25.59-30.22-30.41,40.85-25,90.92-1.32,122.54,30.3,18.07,20.07,30,46.27,28.86,72.76l.67,0a183.23,183.23,0,0,0-.54-25.35c-2.63-29-18.45-50.07-39.53-68.52-26.35-21.08-55.34-29-87-31.62-36.89-5.27-68.52,10.54-102.77,23.71-26.36,13.18-47.44,34.26-71.16,52.71-42.16,39.53-68.51,100.14-129.12,108-65.88,5.27-126.49-26.35-166-81.69A93.24,93.24,0,0,1,121.89,859.32Z"/><path class="cls-1" d="M562.43,948.36c6.73,13.62,41,43.62,41,43.62S550.76,999.89,562.43,948.36Zm-45.95,35.71c-.8-.23-34.38-10.12-44.79,23.73-10.54,34.25-23.72,26.35-23.72,26.35s2.64,5.27,13.18,5.27,23.72,0,36.89-13.18c0,0,5.27,7.91,2.64,15.81s-.48,12.14-.48,12.14,16.29,9,26.83-4.23,31.62-13.18,31.62-13.18,18.45,0,26.36,5.27,26.35,18.45,34.25,18.45c0,0-21.08-13.18-26.35-26.35,0,0,52.71,0,79.06-18.45,0,0,10.54,0,7.9,18.45,0,0,0,13.17,13.18,13.17s13.18-29,13.18-29-2.64-11,0-20,10.77-17.73,13.29-25.22c7.06-21,11.34-41.85,12.28-62.52l-.67,0A78.06,78.06,0,0,1,726,935.33c-7.91,21.08-36.89,29-56.62,12.74,0,0-5.31-3.52-2.67-11.43,0,0-5.27,2.64-5.27,13.18,0,0-13.18,0-13.18,10.54s2.64,13.18,13.18,26.35c0,0-39.53,10.54-34.26-29,0,0,2.63-10.55,10.54-13.18s10.54-13.18,10.54-13.18,2.64-13.17-10.54-13.17-18.45,13.17-18.45,13.17-2.63-7.9,5.27-18.44c0,0,7.91-10.54-13.17-21.09,0,0-5.27,0,0-13.17,0,0-7.91,2.63-7.91,13.17,0,0-13.17,2.64-10.54,26.36s0,26.35,0,26.35-5.27,0-10.54-15.81c0,0-5.88-5.88-14.25-.75.18-1,6.14-33.55-6.83-36.15-13.18-2.63-21.08,7.91-21.08,7.91s-15.82,39.53-2.64,60.61c0,0-18.45-18.45-7.9-50.07S487.5,876,487.5,876s-5.27-2.63-5.27-5.27c0,0-5.27,7.91,2.64,13.18,0,0-11.35,27.19-4.36,39.95,0,0-4.73-.42-6.77-8.33s-10-2.63-10-2.63-5.27,5.27-2.63,15.81,13.18,29,23.72,34.26S505.94,970.9,516.48,984.07Z"/><path class="cls-1" d="M847,852.28c.23-1,5.08-23.56-2.64-18.41,0,0-7.91-15.81-21.09,42.16,0,0-29-26.35,2.64-47.43s89.6-13.18,123.86-36.89c13.35-9.25,17.89-21.7,18.47-33.45v-.08c0-12.32-5.3-19.18-5.3-19.18-36.89-23.72-39.53,31.62-39.53,31.62-12.91,2.15-21-1-26-5.41,0,0-8.23,8-37.21,2.78,0,0,23.71-15.81,13.17-29s-39.53,26.35-60.61,44.8c0,0,10.18-22.9-4.46-33.69-.26-.2-.53-.38-.81-.57-15.81-10.54-29,34.26-31.62,42.17l-.45,1.38.45.16s-2.3,5.55-.45-.16c-2.9-1-18.86-5.78-23.46,2.58,0,0-10.35,3.94,31.82,46.11a93.64,93.64,0,0,1,10.54,42.16s-21.09-5.27-29,7.9c0,0-2.64,5.28,7.9,10.55,0,0-26.35,5.94-22.39,22.73,0,0,6.58,8.89,22.39,8.89,0,0,7.91,21.08,15.82,18.45,0,0,15.25-1.07,22.12-21.62S862.76,934,862.76,934,847,947.18,852.22,957.73s31.62-10.55,31.62-10.55,7.91,2.64,10.55-2.63c0,0,92.23-15.81,113.31-105.41s-26.35-179.2-58-224c0,0-5.28-18.44,34.25-5.27,0,0,23.72-2.63,0-21.08,0,0-7.9-7.9,5.27-10.54s18.36-5.83,23.68-14.77c0,0,42.2-1,52.75-27.39,0,0,5.27-15.81-26.36-10.54,0,0,5.27-79.06-10.54-84.33-5.7-1.9-10.72,0-14.8,3.14h0s14.8-.52,9.53,33.74c0,0-5.89-.28-9.53,28.85s-14.85,17-14.85,17S984,491.29,960.27,486c0,0-5.27-2.64-13.18,0,0,0,5.27,7.9-21.08,13.17,0,0-10.54,7.91,13.17,18.45,0,0-10.54,13.18,7.91,23.72,0,0,7.91,5.27,18.45-2.64s21.08,15.81,15.81,21.08S976.08,573,957.63,573c0,0,2.64-13.18-10.54-13.18s-10.54,18.45-10.54,18.45,2.63,5.27-5.27,7.91-86-50.24-83.4-126.66a55.84,55.84,0,0,1,4.86-15.72s0,0,0,0a64.76,64.76,0,0,1-1.81-15.27h0s-25,29.13-12,66c8.11,22.94,35,71,81.86,107.47,0,0,21.08,15.81,21.08,47.43s-7.91,37-7.91,37,21.09,5.19,23.72-18.53c0,0,65.88,68.52,31.62,184.47,0,0-21.08,52.7-89.59,71.15,0,0-7.91-29-21.09-26.35,0,0-18.44,7.62,0,20.94-.38,0-23.71-.14-23.71-34.12,0,0,18.44-2.64,29-15.81,0,0-2.63-15.81-31.62,0,0,0,13.18-21.08,39.53-21.08,0,0,5.27-21.09-5.27-21.09S852.25,833.86,847,852.28Z"/><path class="cls-1" d="M856.94,417.39a55.88,55.88,0,0,1-3.06-10.89,80.25,80.25,0,0,0-3,22,64.76,64.76,0,0,0,1.81,15.27s0,0,0,0c3.44,13.76,12.53,27.64,33.74,34.33,0,0,5.27,0,0,10.54s2.63,21.09,2.63,21.09,15.82,10.54,36.9-21.09c0,0,2.63-7.9,21.08-2.63,7.91-2.64,13.18,0,13.18,0,23.71,5.27,38.86,38,38.86,38s11.21,12.09,14.85-17,9.53-28.85,9.53-28.85c5.27-34.26-9.53-33.74-9.53-33.74h0c-7.24,5.62-11.55,15.31-11.55,15.31s-7.91,7.9-13.18,0c0,0,18.45-55.34-15.81-60.61,0,0-5.27,0-7.9,10.54,0,0-13.12-18.45-23.69-10.54s0,47.43,0,47.43-51.94,5-71.15-7.91a57.51,57.51,0,0,1-8.7-11.13A61.61,61.61,0,0,1,856.94,417.39Z"/><path class="cls-1" d="M856.94,417.39a61.61,61.61,0,0,0,5,10.06c1.8-1.31-1.2-12.63,61.4-33.67,0,0,23.72-19.17,0-39.89,0,0,10.54,26.72-5.27,32S865.7,400.14,856.94,417.39Z"/><path class="cls-1" d="M889.11,749.54a26.44,26.44,0,0,0,8.23,15.67c5,4.44,13.12,7.56,26,5.41,0,0,2.64-55.34,39.53-31.62,0,0,5.28,6.86,5.3,19.18.87-18.36-7.93-35-7.93-35S910.2,683.66,889.11,749.54Z"/></svg>