<svg id="Layer_1" data-name="Layer 1" xmlns="http://www.w3.org/2000/svg" viewBox="0 0 1366.28 263.89"><defs><style>.cls-1{fill:#231f20;}</style></defs><path class="cls-1" d="M254.12,10.47a12.89,12.89,0,0,0,3.94,1.12v1.69q0,9.84-24.75,30.94a84,84,0,0,1-39.37,14.06Q182.69,60,149.5,62.22c0,2.62-1.5,4.5-4.5,5.62q-14.07,11.4-14.06,66.38,0,12.38.56,29.81,0,44.58-20.25,64.13A44.48,44.48,0,0,1,121.94,227h19.68q18.57,0,27.57-5.06c0,.75.18,1.12.56,1.12q-5.2,9.43-19.13,23.07Q134,260.64,120.81,262.47H113.5q-5.07,0-28.69-1.69-2,0-13.5,1.69,14.07-10.26,14.07-43.88a248.72,248.72,0,0,1,2.81-26.43V155q0-61,19.12-79.31Q121.23,61.8,129.81,60V58.84q-43-5.61-63-5.62-33,0-40.5,12.94-5.62,2-5.62,15.75c-1,3.37-2.91,5.06-5.63,5.06H12.81Q11.13,87,10,76.84,10,57.3,42.06,30.16q18.15-13.5,50.63-13.5,17.58,0,91.12,7.87,3,.57,14.07.56h4.5Q234.15,25.09,254.12,10.47Z"/><path class="cls-1" d="M224.42,92.59q15.62,7.89,23.63,24.75h.56q3.93-2.81,30.37-24.75,16.32,16,16.32,28.69v7.31q0,12-27,28.69h-2.25l-1.13-.56a61.45,61.45,0,0,0,1.69-15.19v-3.37q0-11.82-7.31-16.88-11.69,9.28-11.82,10.13l-1.68,91.12q3.8,6,14.62,12.94a4.37,4.37,0,0,1,.56,1.69h.57q.27-.85,7.31-6.19,4.22-4.5,7.31-4.5h1.13q3.09,0,3.93,2.25v.56a181.44,181.44,0,0,1-34.31,29.25,26.5,26.5,0,0,1-5.06,3.94h-.56q-15.48-13.22-29.25-20.25-12.81-4.78-12.94-5.63V236q0-1.4,9.56-10.69,2.82-28.4,2.81-60.75,0-41.06-2.81-41.06a12,12,0,0,0-3.94-4.5h-1.12l-9,6.19c-2.06,0-3.57-1.31-4.5-3.94q0-1.26,25.31-21.37Z"/><path class="cls-1" d="M357.73,96h1.13q18.42,11.81,54.56,24.75v1.12q-1.12,31.51-1.12,41.07v73.68q-3.1,2.11-30.94,15.19-8.73,5.35-16.31,10.69h-1.13q-39.51-24.18-60.75-24.19l-.56-2.81q0-1.41,6.75-9.56,1.68-12,2.25-44.44-.57-40.22-.56-52.31a28.14,28.14,0,0,1-.57-4.5q3.94-3.24,27.57-14.07Q338.05,110,357.73,96Zm-12.37,28.12q.56,10.41.56,15.19v82.13l32.63,12.37v-90q0-9-6.19-9Q366.17,132,345.36,124.09Z"/><path class="cls-1" d="M456.31,94.84Q464.19,98.37,485,119l-10.12,11.25q-1.69,80.29-1.69,92.81,7.59,8.44,11.25,8.44h1.12q2.54,0,24.75-16.87,1.13-39,1.69-83.25-2-3-10.69-12.38,20-20.81,24.75-23.06h1.13q4.77,0,15.19,11.25A103.92,103.92,0,0,1,555.31,119L544.62,132v2.25q0,30.24-.56,90.56,0,2.53,9,9.56a40.31,40.31,0,0,1,7.32-1.68h1.12q.84,0,2.25,2.25v2.81a167.25,167.25,0,0,1-29.25,23.62c0,.76-.94,1.13-2.81,1.13q-7.17-.84-26.44-24.19L503,236.59q-12.09,7-34.88,25.88H467l-27-20.25q-9.57-3.93-9.56-6.19,0-2.81,6.18-6.75c2.26-4.22,3.38-6.84,3.38-7.87l1.12-91.13c-2.62-2.62-4.68-3.94-6.18-3.94h-2.25a13.71,13.71,0,0,0-4.5,3.94q-2.25,0-3.94-5.06,0-4.08,11.25-11.81,1.68-3.09,20.25-18.57Z"/><path class="cls-1" d="M634.91,235.89q0,1.13-23.07,25.88h-.56Q587.79,243.91,586,243.2v-3.37l.56-2.81q11.82-12.53,11.81-15.19V129.58q-25.87-16.88-25.87-36A.49.49,0,0,1,573,93q19.83,14.06,23.63,14.06,1.68-8.58,2.25-32.63-.57-27.84-.57-36H600Q632.24,63.2,633.78,63.2L633.22,66q0,8.43-.56,23.06,0,1.68,1.12,11.25v.56q2,0,17.44-12.94,1.54,0,12.94,10.13a213.15,213.15,0,0,0,39.37,26.44q.56,62,.56,79.87,0,19.41,1.69,26.44v1.69l-3.94,4.5q-24.33,25.3-31.5,25.31Zm18-4.5H654q3.24,0,15.19-12.37.56-28.7.56-45v-6.75q0-15.48-.56-43.32h-.56q-22.78,10.12-34.32,10.13.57,30,.57,47.81v34.88Q649.1,231.4,652.91,231.39Z"/><path class="cls-1" d="M773.28,96q17,8.58,58.5,36.56h1.13v1.13q0,3.66-8.44,9.56a4.42,4.42,0,0,1-.56,1.69q.55,58.5,1.12,78.18,8.72,7.6,15.19,7.88h5.06l1.13-.56v5.06q-10.7,12.66-19.13,15.19-8.29,10.68-12.94,10.68-2.52,0-25.31-18.56-5.34,0-22.5,15.19-6.62,4.5-9,4.5h-6.19q-2.1,0-18.56-11.81-12.51-6.61-19.69-8.44v-1.13q0-3.09,6.75-9,1.7-12.22,2.25-36.56l-1.68-65.81q6.89-4.36,32.06-16.88Q767.37,101.32,772.72,96Zm-17.44,35.44L757,223.09q17,11.82,19.69,11.82,12.23-7.32,13.5-7.32V151.66a159.77,159.77,0,0,0-27.57-21.38l-1.68-1.69Z"/><path class="cls-1" d="M878.19,263.88q-7.17,0-31.5-25.32l-3.94-4.5v-1.68q1.69-7,1.69-26.44,0-17.87.56-79.88a212.54,212.54,0,0,0,39.38-26.44q11.39-10.11,12.93-10.12,15.47,12.94,17.44,12.94v-.56q1.13-9.57,1.13-11.26-.57-14.61-.57-23.06l-.56-2.81q1.54,0,33.75-24.75h1.69q0,8.16-.57,36,.57,24,2.26,32.62,3.79,0,23.62-14.06a.5.5,0,0,1,.56.56q0,19.14-25.87,36v92.26q0,2.67,11.81,15.18l.56,2.82v3.37q-1.83.7-25.31,18.56h-.56q-23.07-24.75-23.07-25.87Zm35.43-45.57V183.44q0-17.87.57-47.82-11.54,0-34.31-10.12h-.57q-.55,27.84-.56,43.31v6.75q0,16.32.56,45,12,12.38,15.19,12.38h1.12Q899.43,232.94,913.62,218.31Z"/><path class="cls-1" d="M1037.8,96h1.12q18.42,11.81,54.56,24.75v1.12q-1.12,31.51-1.12,41.07v73.68q-3.09,2.11-30.94,15.19-8.72,5.35-16.31,10.69H1044q-39.51-24.18-60.75-24.19l-.56-2.81q0-1.41,6.75-9.56,1.7-12,2.25-44.44-.55-40.22-.56-52.31a27.83,27.83,0,0,1-.56-4.5q3.93-3.24,27.56-14.07Q1018.11,110,1037.8,96Zm-12.38,28.12q.55,10.41.56,15.19v82.13l32.63,12.37v-90q0-9-6.19-9Q1046.22,132,1025.42,124.09Z"/><path class="cls-1" d="M1136.38,94.84q7.86,3.52,28.68,24.19l-10.12,11.25q-1.7,80.29-1.69,92.81,7.59,8.44,11.25,8.44h1.12q2.54,0,24.76-16.87,1.11-39,1.68-83.25-2-3-10.68-12.38,20-20.81,24.74-23.06h1.13q4.79,0,15.19,11.25A104.07,104.07,0,0,1,1235.38,119L1224.69,132v2.25q0,30.24-.57,90.56,0,2.53,9,9.56a40.31,40.31,0,0,1,7.32-1.68h1.12q.84,0,2.25,2.25v2.81a167.25,167.25,0,0,1-29.25,23.62c0,.76-.94,1.13-2.81,1.13q-7.17-.84-26.44-24.19l-2.25-1.69q-12.09,7-34.87,25.88h-1.13l-27-20.25q-9.55-3.93-9.56-6.19,0-2.81,6.19-6.75,3.38-6.33,3.37-7.87l1.13-91.13c-2.63-2.62-4.69-3.94-6.19-3.94h-2.25a13.71,13.71,0,0,0-4.5,3.94q-2.25,0-3.94-5.06,0-4.08,11.25-11.81,1.7-3.09,20.25-18.57Z"/><path class="cls-1" d="M1287.55,92.59q15.6,7.89,23.62,24.75h.56q3.94-2.81,30.38-24.75,16.31,16,16.31,28.69v7.31q0,12-27,28.69h-2.25l-1.12-.56a62,62,0,0,0,1.68-15.19v-3.37q0-11.82-7.31-16.88-11.67,9.28-11.81,10.13l-1.69,91.12q3.8,6,14.63,12.94a4.37,4.37,0,0,1,.56,1.69h.56q.28-.85,7.31-6.19c2.82-3,5.25-4.5,7.32-4.5h1.12c2.06,0,3.38.75,3.94,2.25v.56a181.75,181.75,0,0,1-34.31,29.25,26.26,26.26,0,0,1-5.07,3.94h-.56q-15.47-13.22-29.25-20.25-12.8-4.78-12.94-5.63V236q0-1.4,9.57-10.69,2.81-28.4,2.81-60.75,0-41.06-2.81-41.06a12,12,0,0,0-3.94-4.5h-1.13l-9,6.19q-3.09,0-4.5-3.94,0-1.26,25.32-21.37Z"/></svg>